<svg width="100" height="109" viewBox="0 0 100 109" fill="none" xmlns="http://www.w3.org/2000/svg">
<g id="Frame 1">
<path id="Vector" d="M58.96 54.064L67.852 45.562C69.904 43.6 69.904 40.548 67.852 38.586L55.198 50.685L52.918 48.505L61.924 39.894C63.976 37.932 63.976 34.88 61.924 32.918L49.156 45.126L46.876 42.946L55.996 34.226C58.048 32.264 58.048 29.212 55.996 27.25L43.114 39.349L34.906 31.392C32.854 29.43 29.662 29.43 27.61 31.392L39.466 42.728L37.072 45.017L28.864 37.169C26.812 35.207 23.62 35.207 21.568 37.169L33.424 48.505L31.144 50.685L22.936 42.837C20.884 40.875 17.692 40.875 15.64 42.837L27.268 53.955L18.376 62.457C16.324 64.419 16.324 67.471 18.376 69.433L31.03 57.334L33.31 59.514L24.304 68.125C22.252 70.087 22.252 73.139 24.304 75.101L37.072 62.893L39.352 65.073L30.232 73.793C28.18 75.755 28.18 78.807 30.232 80.769L43 68.561L51.208 76.518C53.26 78.48 56.452 78.48 58.504 76.518L46.648 65.182L49.042 62.893L57.25 70.741C59.302 72.703 62.494 72.703 64.546 70.741L52.69 59.405L54.97 57.225L63.178 65.073C65.23 67.035 68.422 67.035 70.474 65.073L58.96 54.064ZM43.114 46.216L45.394 48.396L43 50.685L40.72 48.505L43.114 46.216ZM37.072 56.026L35.02 54.064L37.072 52.102L39.124 54.173L37.072 56.026ZM43.114 61.694L40.834 59.514L43.228 57.225L45.508 59.405L43.114 61.694ZM47.104 53.955L49.156 51.993L51.208 53.955L49.156 55.917L47.104 53.955Z" fill="#0F0F0F"/>
</g>
</svg>
