<svg xmlns="http://www.w3.org/2000/svg" width="378" height="405" viewBox="0 0 378 405" fill="none">
  <path d="M298.628 202.912L359.925 138.574C374.071 123.727 374.071 100.631 359.925 85.7842L272.694 177.342L256.977 160.845L319.06 95.6823C333.206 80.8351 333.206 57.7394 319.06 42.8922L231.044 135.275L215.326 118.778L278.195 52.7903C292.341 37.943 292.341 14.8472 278.195 0L189.393 91.5581L132.811 31.3442C118.665 16.497 96.6611 16.497 82.5156 31.3442L164.245 117.128L147.742 134.45L91.1601 75.0611C77.0146 60.2139 55.0102 60.2139 40.8647 75.0611L122.595 160.845L106.877 177.342L50.2952 117.953C36.1496 103.106 14.1455 103.106 0 117.953L80.1578 202.088L18.8607 266.426C4.71513 281.273 4.71513 304.369 18.8607 319.216L106.091 227.658L121.809 244.155L59.7256 309.318C45.5801 324.165 45.5801 347.261 59.7256 362.108L147.742 269.725L163.459 286.222L100.59 352.21C86.4448 367.057 86.4448 390.153 100.59 405L188.607 312.617L245.189 372.831C259.335 387.678 281.339 387.678 295.484 372.831L213.755 287.047L230.258 269.725L286.84 329.114C300.985 343.961 322.99 343.961 337.135 329.114L255.405 243.33L271.123 226.833L327.705 286.222C341.85 301.069 363.854 301.069 378 286.222L298.628 202.912ZM189.393 143.523L205.11 160.02L188.607 177.342L172.89 160.845L189.393 143.523ZM147.742 217.76L133.597 202.912L147.742 188.065L161.888 203.737L147.742 217.76ZM189.393 260.652L173.676 244.155L190.179 226.833L205.896 243.33L189.393 260.652ZM216.898 202.088L231.044 187.24L245.189 202.088L231.044 216.935L216.898 202.088Z" fill="#FEFBFB"/>
</svg>